<?xml version="1.0" standalone="no"?><!DOCTYPE svg PUBLIC "-//W3C//DTD SVG 1.1//EN" "http://www.w3.org/Graphics/SVG/1.1/DTD/svg11.dtd"><svg t="1484493626465" class="icon" style="" viewBox="0 0 1024 1024" version="1.1" xmlns="http://www.w3.org/2000/svg" p-id="4209" xmlns:xlink="http://www.w3.org/1999/xlink" width="32" height="32"><defs><style type="text/css"></style></defs><path d="M935.493735 197.981097 622.848109 510.626723l312.645626 312.63437 0 0c14.284331 14.289448 23.12058 34.026978 23.12058 55.827493 0 43.60717-35.347043 78.965469-78.954213 78.965469-21.806655 0-41.543162-8.847505-55.833633-23.137976l0 0L511.1921 622.281709 198.552613 934.916079l0 0c-14.289448 14.289448-34.026978 23.137976-55.833633 23.137976-43.61331 0-78.95933-35.358299-78.95933-78.965469 0-21.800515 8.842389-41.538045 23.12672-55.827493l0 0 312.639486-312.63437L86.886371 197.981097l0 0c-14.284331-14.289448-23.12672-34.026978-23.12672-55.827493 0-43.60717 35.347043-78.954213 78.95933-78.954213 21.806655 0 41.543162 8.831132 55.833633 23.12672l0 0 312.639486 312.62823L823.82647 86.325088l0 0c14.289448-14.295588 34.026978-23.12672 55.833633-23.12672 43.60717 0 78.954213 35.347043 78.954213 78.954213C958.614315 163.954119 949.777043 183.690626 935.493735 197.981097L935.493735 197.981097z" p-id="4210" fill="#ffffff"></path></svg>