<?xml version="1.0" standalone="no"?><!DOCTYPE svg PUBLIC "-//W3C//DTD SVG 1.1//EN" "http://www.w3.org/Graphics/SVG/1.1/DTD/svg11.dtd"><svg t="1484488219442" class="icon" style="" viewBox="0 0 1024 1024" version="1.1" xmlns="http://www.w3.org/2000/svg" p-id="2490" xmlns:xlink="http://www.w3.org/1999/xlink" width="32" height="32"><defs><style type="text/css"></style></defs><path d="M651.255089 135.534859c0 0-125.860523 187.255825-260.930801 0 0 0-47.469128 54.450123-153.058978 60.820204-5.121648 0.309038-16.053628 4.081968-16.053628 4.081968s-4.324492 0.936325-11.867282 9.243525c-25.634844 28.235065-85.253686 101.116979-113.716948 195.994859 0 0 52.18657 81.34875 138.139174 75.208912 0 0 38.371936-24.558325 44.511773-52.18657l9.461489-0.437975c0 0 21.23565 129.368416-12.531408 405.646763 0 0 222.556818 58.325383 481.95266 0 0 0-50.650587-334.604754-9.208732-405.208788l14.245446-0.097214c0 0 44.002167 58.328453 63.444984 52.188616s75.724659-20.466124 111.540376-84.934414c0 0-63.444984-138.146337-105.400538-182.148503S740.880339 207.79051 651.255089 135.534859z" p-id="2491" fill="#ffffff"></path></svg>