<?xml version="1.0" standalone="no"?><!DOCTYPE svg PUBLIC "-//W3C//DTD SVG 1.1//EN" "http://www.w3.org/Graphics/SVG/1.1/DTD/svg11.dtd"><svg t="1484487565539" class="icon" style="" viewBox="0 0 1024 1024" version="1.1" xmlns="http://www.w3.org/2000/svg" p-id="857" xmlns:xlink="http://www.w3.org/1999/xlink" width="32" height="32"><defs><style type="text/css"></style></defs><path d="M472.909703 73.197092c-31.054273 0-26.27748 9.56382-43.00035 11.952216-16.723893 2.388397 3.38305-2.388397-46.787606 7.16519-50.16554 9.553587-67.88511 74.059739-70.273507 97.948823-2.388397 23.8942-2.984984 91.048669-1.397836 126.884852 4.776793 21.500687-11.941983 21.500687-11.941983 21.500687-30.058596-1.923816-16.544815 91.747587-16.544815 91.747587 4.312212 23.087834-1.556449 34.585703 42.955324 52.472072 21.203928 60.397578 75.151607 90.890057 75.151607 90.890057s2.679016 38.718837 3.521197 66.312288c-4.532223-2.260483 14.508435 70.502727-123.765815 90.910523-138.28039 20.397562-164.756391 65.189721-190.818977 90.119507C63.933101 846.041936 65.913199 961.14751 65.913199 961.14751l890.456494 0c0 0-5.67014-115.105574-31.737842-140.045593-26.067702-24.929786-54.462402-69.721945-192.737676-90.119507-138.275273-20.407796-113.76402-91.186815-114.712625-95.488795 0.24457-10.869558 5.072529-56.958246 5.072529-56.958246s44.532239-37.060057 65.73105-97.468892c33.365922-21.061688 46.078455-24.000624 51.589982-48.282656 0 0 11.258415-91.747587-24.577768-91.747587 0 0-14.932084 2.39863-10.150174-19.11229 4.78191-21.500687 3.189645-88.655156 0.801249-112.549356-2.393513-23.889083 4.572132-92.176352-45.593408-101.729939-34.243919-6.374174-38.223556 3.302209-54.952566 0.913812-16.718777-2.388397-36.631292-45.705971-67.690682-45.705971L472.909703 73.197092z" p-id="858" fill="#ffffff"></path></svg>