<?xml version="1.0" standalone="no"?><!DOCTYPE svg PUBLIC "-//W3C//DTD SVG 1.1//EN" "http://www.w3.org/Graphics/SVG/1.1/DTD/svg11.dtd"><svg t="1484496000658" class="icon" style="" viewBox="0 0 1024 1024" version="1.1" xmlns="http://www.w3.org/2000/svg" p-id="5065" xmlns:xlink="http://www.w3.org/1999/xlink" width="32" height="32"><defs><style type="text/css"></style></defs><path d="M485.157888 435.744768c0 31.929344-26.124288 58.053632-58.053632 58.053632L220.770304 493.7984c-31.929344 0-58.053632-26.124288-58.053632-58.053632L162.716672 220.626944c0-31.929344 26.124288-58.053632 58.053632-58.053632l206.334976 0c31.929344 0 58.053632 26.124288 58.053632 58.053632L485.158912 435.744768z" p-id="5066" fill="#b2b2b2"></path><path d="M485.157888 804.06528c0 31.930368-26.124288 58.053632-58.053632 58.053632L220.770304 862.118912c-31.929344 0-58.053632-26.124288-58.053632-58.053632L162.716672 588.952576c0-31.930368 26.124288-58.053632 58.053632-58.053632l206.334976 0c31.929344 0 58.053632 26.124288 58.053632 58.053632L485.158912 804.06528z" p-id="5067" fill="#b2b2b2"></path><path d="M862.2592 435.744768c0 31.929344-26.124288 58.053632-58.053632 58.053632l-206.34624 0c-31.930368 0-58.053632-26.124288-58.053632-58.053632L539.805696 220.626944c0-31.929344 26.124288-58.053632 58.053632-58.053632l206.34624 0c31.930368 0 58.053632 26.124288 58.053632 58.053632L862.2592 435.744768z" p-id="5068" fill="#b2b2b2"></path><path d="M862.261248 804.06528c0 31.930368-26.124288 58.053632-58.053632 58.053632L597.860352 862.118912c-31.930368 0-58.053632-26.124288-58.053632-58.053632L539.80672 588.952576c0-31.930368 26.124288-58.053632 58.053632-58.053632l206.347264 0c31.930368 0 58.053632 26.124288 58.053632 58.053632L862.261248 804.06528z" p-id="5069" fill="#b2b2b2"></path></svg>