<?xml version="1.0" standalone="no"?><!DOCTYPE svg PUBLIC "-//W3C//DTD SVG 1.1//EN" "http://www.w3.org/Graphics/SVG/1.1/DTD/svg11.dtd"><svg t="1484495962288" class="icon" style="" viewBox="0 0 1025 1024" version="1.1" xmlns="http://www.w3.org/2000/svg" p-id="4907" xmlns:xlink="http://www.w3.org/1999/xlink" width="32.03125" height="32"><defs><style type="text/css"></style></defs><path d="M944.336492 591.36 375.272492 591.36c-44 0-79.664-35.56-79.664-79.432 0-43.864 35.664-79.424 79.664-79.424l569.064 0c43.992 0 79.664 35.56 79.664 79.424C1024.000492 555.8 988.328492 591.36 944.336492 591.36zM944.336492 273.648 375.272492 273.648c-44 0-79.664-35.56-79.664-79.424 0-43.864 35.664-79.424 79.664-79.424l569.064 0c43.992 0 79.664 35.56 79.664 79.424C1024.000492 238.088 988.328492 273.648 944.336492 273.648zM166.392492 861.4l12.024 60.4c0.096 0.568 0.144 1.368 0.16 2.416 0.024 1.704-0.408 3.144-1.304 4.32s-2.208 1.784-3.944 1.808c-1.64 0.016-3.376-0.456-5.216-1.392l-58.752-27.896-57.96 29.256c-1.888 0.992-3.616 1.504-5.176 1.512-1.824 0.024-3.192-0.544-4.12-1.704-0.928-1.168-1.4-2.592-1.424-4.28-0.008-0.496 0.072-1.304 0.224-2.432l10.336-60.672-47.904-42.304c-2.192-2.168-3.312-4.08-3.336-5.784-0.04-2.976 2.36-4.864 7.2-5.648l65.12-9.6 28.48-55.44c1.592-3.32 3.696-5 6.296-5.032 2.6-0.032 4.744 1.592 6.44 4.888l30.008 54.752 65.368 8.072c4.864 0.672 7.32 2.504 7.352 5.488l0.008 0c0.024 1.776-1.08 3.728-3.304 5.848L166.392492 861.4zM166.392492 532.336l12.024 60.416c0.096 0.552 0.144 1.368 0.16 2.416 0.024 1.704-0.408 3.136-1.304 4.312s-2.208 1.784-3.944 1.816c-1.64 0.008-3.376-0.456-5.216-1.4L109.360492 572l-57.96 29.256c-1.888 0.992-3.616 1.496-5.176 1.504-1.824 0.024-3.192-0.544-4.12-1.712-0.928-1.16-1.4-2.576-1.424-4.28-0.008-0.48 0.072-1.288 0.224-2.432l10.336-60.656-47.904-42.312C1.136492 489.224 0.024492 487.296 0.000492 485.6c-0.04-2.984 2.36-4.872 7.2-5.656l65.12-9.6 28.48-55.432c1.592-3.328 3.696-5.008 6.296-5.04 2.6-0.032 4.744 1.6 6.44 4.888l30.008 54.744 65.368 8.08c4.864 0.664 7.32 2.504 7.352 5.488l0.008 0c0.024 1.776-1.08 3.72-3.304 5.848L166.392492 532.336zM166.392492 214.64l12.024 60.4c0.096 0.568 0.144 1.376 0.16 2.424 0.024 1.696-0.408 3.136-1.304 4.312s-2.208 1.784-3.944 1.808c-1.64 0.016-3.376-0.448-5.216-1.392l-58.752-27.888-57.96 29.256c-1.888 0.992-3.616 1.496-5.176 1.512-1.824 0.016-3.192-0.552-4.12-1.712-0.928-1.16-1.4-2.584-1.424-4.28-0.008-0.488 0.072-1.296 0.224-2.432l10.336-60.664-47.904-42.304C1.136492 171.52 0.024492 169.592 0.000492 167.896c-0.04-2.984 2.36-4.872 7.2-5.648l65.12-9.608 28.48-55.432c1.592-3.328 3.696-5.008 6.296-5.04 2.6-0.032 4.744 1.6 6.44 4.888l30.008 54.744 65.368 8.08c4.864 0.664 7.32 2.496 7.352 5.48l0.008 0c0.024 1.776-1.08 3.728-3.304 5.848L166.392492 214.64zM375.272492 761.544l569.064 0c43.992 0 79.664 35.568 79.664 79.432 0 43.864-35.672 79.432-79.664 79.432L375.272492 920.408c-44 0-79.664-35.56-79.664-79.432C295.608492 797.12 331.272492 761.544 375.272492 761.544z" p-id="4908" fill="#b2b2b2"></path></svg>